<?xml version="1.0" encoding="UTF-8" standalone="no"?>
<svg
   version="1.0"
   width="50pt"
   height="50pt"
   viewBox="0 0 50 50"
   preserveAspectRatio="xMidYMid"
   id="svg60"
   sodipodi:docname="avatar.svg"
   inkscape:export-filename="blog\data\logo.svg"
   inkscape:export-xdpi="12"
   inkscape:export-ydpi="12"
   xmlns:inkscape="http://www.inkscape.org/namespaces/inkscape"
   xmlns:sodipodi="http://sodipodi.sourceforge.net/DTD/sodipodi-0.dtd"
   xmlns="http://www.w3.org/2000/svg"
   xmlns:svg="http://www.w3.org/2000/svg">
  <defs
     id="defs64" />
  <sodipodi:namedview
     id="namedview62"
     pagecolor="#ffffff"
     bordercolor="#000000"
     borderopacity="0.25"
     inkscape:showpageshadow="2"
     inkscape:pageopacity="0.0"
     inkscape:pagecheckerboard="0"
     inkscape:deskcolor="#d1d1d1"
     inkscape:document-units="pt"
     showgrid="false" />
  <metadata
     id="metadata50">
Created by potrace 1.16, written by Peter Selinger 2001-2019
</metadata>
  <g
     transform="matrix(0.1,0,0,-0.1,0,150)"
     fill="#000000"
     stroke="none"
     id="g58">
    <rect
       style="fill:#ffffff;fill-opacity:1;stroke-width:2.56702"
       id="rect287"
       width="500"
       height="500"
       x="0"
       y="-1500"
       ry="0"
       transform="scale(1,-1)" />
    <path
       d="m 0,1265 c 0,-231.6667 0,-235 6.3333333,-229.3333 7.3333337,6 30.3333337,9.6666 30.3333337,4.6666 0,-1.6666 2.666666,-4 6,-5 6.333333,-2 9,-12 3.333333,-12 -1.666667,0 -2,-1.6666 -1,-3.6666 1.333333,-2 4.333333,-2.6667 7,-1.6667 4.666667,1.6667 3,-6 -3,-13.6667 C 46.666667,1001 91.666667,1000 273,1000 h 227 v 122 122 l -10.33333,-2 c -5.66667,-1 -12,-2 -13.66667,-2 -1.66667,0 -2,-1.6667 -1,-3.3333 1,-2 -1,-3.3334 -4.66667,-3.3334 -4,0 -7,2 -7,4.6667 0,5.6667 -10.66666,26.6667 -14,28 -1.66666,0.6667 -2.66666,5.3333 -2.66666,10.3333 0,7.6667 2.66666,10.6667 15.33333,17.3334 l 15.33333,7.6666 5.66667,-7 c 3,-4 8,-11 11,-15 5.33333,-7.3333 5.66667,-2 6,106.6667 v 114 H 250 0 Z m 300,192 c 26.33333,-7 48.66667,-15.3333 54.66667,-21 3.66666,-3.3333 8.66666,-6 11,-6 C 368,1430 370,1427.6667 370,1425 c 0,-2.6667 -1.33333,-5 -2.66667,-5 -3.66666,0 -10.66666,-15.3333 -10.66666,-22.6667 0,-3 3,-9.3333 6.66666,-14 3.66667,-4.6666 6.66667,-11 6.66667,-14 0,-3.3333 1.66667,-6 3.66667,-6 1.66666,0 2.66666,-1.3333 1.33333,-3 -1,-2 2.66667,-6.6666 8,-10.6666 5.33333,-4 13,-14.3334 17,-22.6667 7,-16 13.66667,-27.6667 17,-30.3333 1,-1 2,-7.6667 2,-15.3334 0,-7.3333 1,-15.3333 2,-17 1.33333,-2 3,-12.3333 4,-23 1,-10.6666 3.66667,-20.3333 5.66667,-21.6666 5.33333,-3.3334 -3,-7 -10.66667,-4.6667 -3.66667,1.3333 -6.66667,0.6667 -6.66667,-1.3333 0,-2 2.33334,-3.6667 5,-3.6667 7,0 6.33334,-6 -1.66666,-10.6667 -8.33334,-5.3333 -8.66667,-11.3333 -1,-15.6666 5.33333,-2.6667 4.66666,-3.3334 -3,-5.3334 -6.66667,-1.6666 -8.33334,-4 -7.66667,-10.3333 0.33333,-4.3333 -0.66667,-8 -2.33333,-8 -1.66667,0 -2.33334,-1.3333 -1.33334,-3 1.33334,-1.6667 -1,-2.3333 -4.66666,-1.3333 -4,1 -6.66667,0 -6.66667,-2.3334 0,-2.3333 -2.33333,-3.3333 -5.33333,-2 -4.66667,1.6667 -5,1.3334 -1.33334,-3 3.33334,-4 3,-5 -2,-5 -5.66666,-0.3333 -5.33333,-1 2,-7.3333 6.66667,-5.6667 7,-6.6667 1.66667,-4.6667 -3.66667,1.6667 -8,3 -10,3.3334 -6.66667,1.6666 -30,13.6666 -31,16.3333 -1.66667,3.6667 -18.33333,2.6667 -24,-1.3333 -4,-2.6667 -2.33333,-3 6,-2 14,1.6666 13.66667,-2.3334 -0.66667,-9 -6.33333,-3 -12.66666,-8.3334 -13.66666,-12 -1.33334,-3.6667 -3.66667,-6 -5.33334,-5 -5.66666,3.6666 -10.33333,-2 -6,-7 3.33334,-4 3,-4.3334 -2,-2.6667 -5,2 -5.66666,1 -4,-5 1.66667,-7.3333 1.66667,-7.3333 -4.66666,-1.6667 -3.66667,3.3334 -6.33334,4 -6.33334,2 0,-2.3333 -3.66666,-4 -8.33333,-4 -4.66667,0 -8.33333,-1.3333 -8.33333,-3 0,-4.3333 -23,-11.6666 -33,-11 C 226,1090 220.33333,1095 220,1100.6667 c 0,1.3333 3.33333,5.6666 7.66667,9.3333 4,4 6,6.6667 4,6.3333 -1.66667,-0.3333 -7.66667,1 -12.66667,3 -5,2.3334 -17,3.6667 -26.66667,3.6667 -9.66666,-0.3333 -26,2.3333 -36.66666,5.6667 -10.33334,3 -20,4.6666 -21.33334,3.3333 -1.33333,-1.3333 0.33334,-8 4,-14.6667 C 142,1110.6667 144.66667,1101 144,1096 c -1,-8.6667 -1,-8.6667 -12.66667,-4 C 125,1094.6667 118,1096 116,1094.6667 c -2.33333,-1.6667 -2.66667,-1 -1.33333,1.6666 3.33333,5.3334 -7,13.3334 -17.000003,13.6667 -6,0 -7.666667,2 -7.666667,8.3333 0,7 -1.666667,8.3334 -9.666667,8.3334 -7.666666,0 -11.333333,2.3333 -16,10 -3.333333,5.6666 -7.666666,9.3333 -9.666666,8.6666 -2.333334,-1 -5,2.3334 -6.333334,7 C 46,1161.6667 39,1170 33.666667,1170 c -2,0 -3.666667,2.3333 -3.666667,5 0,9.3333 -0.333333,10 -7.666667,12.6667 -5.333333,2 -6,3.3333 -2.666666,5.3333 3.333333,2.3333 3.333333,4.3333 0.666666,9.6667 -2.666666,5 -2.666666,7 0.333334,8 2.333333,1 1.333333,4 -3.333334,8.6666 C 11,1225.6667 10.666667,1227 15,1228.6667 c 3.666667,1.3333 4,3.3333 2,6 C 13.333333,1239 14,1248.3333 17.666667,1252 19,1253.3333 20,1258 20,1262.3333 c 0,4 1.666667,7.6667 3.333333,7.6667 2,0 3.333334,2 3.333334,4.6667 0,2.3333 2.333333,9 5,14 2.666666,5.3333 5,12.3333 5,15.3333 0,3 1.333333,6.3333 3,7.3333 1.666666,1.3334 4,8 5.333333,15.3334 1.333333,7.3333 4,15.3333 6,17.6666 2.333333,2 6.333333,8.3334 9,14 2.666667,5.3334 11.666667,16.3334 20,24.3334 8.333333,7.6666 20.33333,19.3333 26.66667,25.3333 6.33333,6.3333 15.33333,12.3333 20,13.6667 4.66666,1.3333 12.66666,5.6666 18.33333,9.6666 5.33333,3.6667 15.33333,9.6667 21.66667,13.3334 C 173,1448 179,1452 180,1453.3333 c 5.33333,8 93.33333,10.6667 120,3.6667 z"
       id="path52"
       style="stroke-width:0.333333" />
    <path
       d="m 141,1283.3333 c -3.66667,-1.6666 -9.66667,-7.3333 -13,-13 -3.33333,-5.6666 -7,-10.3333 -8.33333,-10.3333 -3,0 -26.333337,-22.3333 -26.66667,-25.6667 -3.333333,-21 2.333333,-37.3333 15.33333,-44.3333 7,-4 8.66667,-3 19,8.6667 6,7 17.33334,20 25.33334,28.6666 12,14 14,18.3334 14,31 0,9.3334 -2.33334,17.3334 -5.66667,21.6667 -6.33333,7.3333 -9,7.6667 -20,3.3333 z"
       id="path54"
       style="stroke-width:0.333333" />
    <path
       d="m 263.33333,1259.3333 c 0,-1.6666 -1.33333,-2.3333 -3,-1.3333 -3,2 -13.66666,-26.6667 -13.66666,-37 0,-3.6667 1.33333,-7.6667 2.66666,-9.6667 1.66667,-1.6666 7.66667,-16 13.66667,-32 10.33333,-27 11.66667,-29 22,-30.6666 6.33333,-1.3334 12,-4 13,-6.3334 1,-2.3333 2.33333,-1 3.66667,3.3334 1.33333,4.3333 3.66666,7 5,6 C 308,1151 312,1153.3333 315.33333,1157 c 9.66667,10.6667 9,46.6667 -1,56.3333 -4.33333,3.6667 -7.66666,10 -7.66666,13.6667 0,8.3333 -7.66667,23.6667 -15,29.6667 -6.33334,5.3333 -28.33334,7.3333 -28.33334,2.6666 z"
       id="path56"
       style="stroke-width:0.333333" />
  </g>
</svg>
